<mxfile host="65bd71144e" scale="2" border="0">
    <diagram id="bpoPaQeS03VnUoz4qxf3" name="Page-1">
        <mxGraphModel dx="2950" dy="1079" grid="1" gridSize="10" guides="1" tooltips="1" connect="1" arrows="1" fold="1" page="1" pageScale="1" pageWidth="827" pageHeight="1169" math="0" shadow="0">
            <root>
                <mxCell id="0"/>
                <mxCell id="1" parent="0"/>
                <mxCell id="9" value="" style="rounded=0;dashed=1;strokeColor=#413eea;" parent="1" vertex="1">
                    <mxGeometry x="-920" y="400" width="720" height="370" as="geometry"/>
                </mxCell>
                <mxCell id="17" value="Network&#10;" style="aspect=fixed;points=[];align=center;image;fontSize=12;image=img/lib/azure2/networking/Virtual_Networks.svg;dashed=1;strokeColor=#413eea;" parent="1" vertex="1">
                    <mxGeometry x="-913" y="410" width="67" height="40" as="geometry"/>
                </mxCell>
                <mxCell id="74" style="edgeStyle=orthogonalEdgeStyle;sketch=0;entryX=0.533;entryY=0.067;entryDx=0;entryDy=0;entryPerimeter=0;shadow=0;dashed=1;strokeColor=default;endArrow=block;endFill=1;dashPattern=8 8;exitX=0.503;exitY=1.065;exitDx=0;exitDy=0;exitPerimeter=0;" parent="1" source="29" target="30" edge="1">
                    <mxGeometry relative="1" as="geometry">
                        <Array as="points">
                            <mxPoint x="-684" y="470"/>
                            <mxPoint x="-793" y="470"/>
                        </Array>
                    </mxGeometry>
                </mxCell>
                <mxCell id="29" value="Azure Monitor Private Link Scope" style="aspect=fixed;points=[];align=center;image;fontSize=12;image=img/lib/azure2/networking/Private_Link.svg;" parent="1" vertex="1">
                    <mxGeometry x="-720.0000000000001" y="268.39" width="72" height="66" as="geometry"/>
                </mxCell>
                <mxCell id="30" value="privatelink.agentsvc.azure-automation.net&#10;privatelink.monitor.azure.com&#10;privatelink.blob.core.windows.net&#10;privatelink.ods.opinsights.azure.com&#10;privatelink.oms.opinsights.azure.com" style="aspect=fixed;points=[];align=center;image;fontSize=12;image=img/lib/azure2/networking/DNS_Zones.svg;" parent="1" vertex="1">
                    <mxGeometry x="-819" y="520" width="48" height="48" as="geometry"/>
                </mxCell>
                <mxCell id="57" style="edgeStyle=orthogonalEdgeStyle;entryX=1.039;entryY=0.497;entryDx=0;entryDy=0;entryPerimeter=0;endArrow=none;endFill=0;dashed=1;exitX=-0.062;exitY=0.583;exitDx=0;exitDy=0;exitPerimeter=0;" parent="1" source="32" target="29" edge="1">
                    <mxGeometry relative="1" as="geometry">
                        <Array as="points">
                            <mxPoint x="-500" y="328"/>
                            <mxPoint x="-500" y="301"/>
                        </Array>
                    </mxGeometry>
                </mxCell>
                <mxCell id="53" style="edgeStyle=orthogonalEdgeStyle;endArrow=none;endFill=0;dashed=1;exitX=0.484;exitY=-0.035;exitDx=0;exitDy=0;exitPerimeter=0;" parent="1" target="29" edge="1" source="47">
                    <mxGeometry relative="1" as="geometry">
                        <mxPoint x="-450" y="190" as="targetPoint"/>
                        <Array as="points">
                            <mxPoint x="-483" y="360"/>
                            <mxPoint x="-535" y="360"/>
                            <mxPoint x="-535" y="320"/>
                        </Array>
                        <mxPoint x="-374" y="560" as="sourcePoint"/>
                    </mxGeometry>
                </mxCell>
                <mxCell id="99" value="Association" style="edgeLabel;align=center;verticalAlign=middle;resizable=0;points=[];" vertex="1" connectable="0" parent="53">
                    <mxGeometry x="0.4574" y="-4" relative="1" as="geometry">
                        <mxPoint as="offset"/>
                    </mxGeometry>
                </mxCell>
                <mxCell id="61" style="edgeStyle=orthogonalEdgeStyle;exitX=1.029;exitY=0.56;exitDx=0;exitDy=0;exitPerimeter=0;entryX=0.524;entryY=1.052;entryDx=0;entryDy=0;entryPerimeter=0;" parent="1" source="47" target="32" edge="1">
                    <mxGeometry relative="1" as="geometry">
                        <Array as="points">
                            <mxPoint x="-416" y="457"/>
                        </Array>
                    </mxGeometry>
                </mxCell>
                <mxCell id="62" value="Logs" style="edgeLabel;align=center;verticalAlign=middle;resizable=0;points=[];" parent="61" vertex="1" connectable="0">
                    <mxGeometry x="-0.4512" y="-2" relative="1" as="geometry">
                        <mxPoint as="offset"/>
                    </mxGeometry>
                </mxCell>
                <mxCell id="32" value="Log workspace" style="aspect=fixed;points=[];align=center;image;fontSize=12;image=img/lib/azure2/analytics/Log_Analytics_Workspaces.svg;" parent="1" vertex="1">
                    <mxGeometry x="-450" y="290.17" width="64" height="64" as="geometry"/>
                </mxCell>
                <mxCell id="101" style="edgeStyle=none;startArrow=none;" edge="1" parent="1" source="35" target="47">
                    <mxGeometry relative="1" as="geometry">
                        <Array as="points"/>
                    </mxGeometry>
                </mxCell>
                <mxCell id="100" value="Data Collection Rule&#10;DCRA" style="aspect=fixed;points=[];align=center;image;fontSize=12;image=img/lib/azure2/general/Workbooks.svg;" vertex="1" parent="1">
                    <mxGeometry x="-502" y="680.0000000000001" width="40" height="43.33" as="geometry"/>
                </mxCell>
                <mxCell id="47" value="VM DCE" style="aspect=fixed;points=[];align=center;image;fontSize=12;image=img/lib/azure2/networking/Private_Endpoint.svg;" parent="1" vertex="1">
                    <mxGeometry x="-508" y="430" width="52" height="47.66" as="geometry"/>
                </mxCell>
                <mxCell id="103" value="" style="edgeStyle=none;endArrow=none;" edge="1" parent="1" source="97" target="35">
                    <mxGeometry relative="1" as="geometry">
                        <mxPoint x="-661" y="624" as="sourcePoint"/>
                        <mxPoint x="-534" y="477.6600000000001" as="targetPoint"/>
                        <Array as="points">
                            <mxPoint x="-480" y="624"/>
                        </Array>
                    </mxGeometry>
                </mxCell>
                <mxCell id="104" value="Ingestion and config" style="edgeLabel;align=center;verticalAlign=middle;resizable=0;points=[];" vertex="1" connectable="0" parent="103">
                    <mxGeometry x="-0.1745" y="1" relative="1" as="geometry">
                        <mxPoint x="-5" y="1" as="offset"/>
                    </mxGeometry>
                </mxCell>
                <mxCell id="35" value="Azure Monitor Private Endpoint" style="aspect=fixed;points=[];align=center;image;fontSize=12;image=img/lib/azure2/networking/Private_Endpoint.svg;" parent="1" vertex="1">
                    <mxGeometry x="-508" y="532.49" width="52" height="47.66" as="geometry"/>
                </mxCell>
                <mxCell id="105" style="edgeStyle=orthogonalEdgeStyle;endArrow=none;endFill=0;dashed=1;" edge="1" parent="1" source="100" target="97">
                    <mxGeometry relative="1" as="geometry">
                        <mxPoint x="-638" y="330" as="targetPoint"/>
                        <Array as="points">
                            <mxPoint x="-625" y="702"/>
                        </Array>
                        <mxPoint x="-498" y="470" as="sourcePoint"/>
                    </mxGeometry>
                </mxCell>
                <mxCell id="106" value="Association" style="edgeLabel;align=center;verticalAlign=middle;resizable=0;points=[];" vertex="1" connectable="0" parent="105">
                    <mxGeometry x="0.4574" y="-4" relative="1" as="geometry">
                        <mxPoint x="61" y="-2" as="offset"/>
                    </mxGeometry>
                </mxCell>
                <mxCell id="97" value="VM&#10;AMA agent&#10;" style="aspect=fixed;points=[];align=center;image;fontSize=12;image=img/lib/azure2/compute/Virtual_Machine.svg;" vertex="1" parent="1">
                    <mxGeometry x="-660" y="592" width="69" height="64" as="geometry"/>
                </mxCell>
                <mxCell id="107" style="edgeStyle=orthogonalEdgeStyle;endArrow=none;endFill=0;dashed=1;exitX=-0.045;exitY=0.682;exitDx=0;exitDy=0;exitPerimeter=0;" edge="1" parent="1" source="47" target="97">
                    <mxGeometry relative="1" as="geometry">
                        <mxPoint x="-757.5" y="486.78999999999996" as="targetPoint"/>
                        <Array as="points">
                            <mxPoint x="-625" y="463"/>
                        </Array>
                        <mxPoint x="-610.5" y="532.49" as="sourcePoint"/>
                    </mxGeometry>
                </mxCell>
                <mxCell id="108" value="Config Association" style="edgeLabel;align=center;verticalAlign=middle;resizable=0;points=[];" vertex="1" connectable="0" parent="107">
                    <mxGeometry x="0.4574" y="-4" relative="1" as="geometry">
                        <mxPoint x="4" y="-37" as="offset"/>
                    </mxGeometry>
                </mxCell>
                <mxCell id="109" value="Global config&#10;global.handler.monitor.azure.com" style="aspect=fixed;points=[];align=center;image;fontSize=12;image=img/lib/azure2/management_governance/Monitor.svg;" vertex="1" parent="1">
                    <mxGeometry x="-320" y="290.17" width="64" height="64" as="geometry"/>
                </mxCell>
            </root>
        </mxGraphModel>
    </diagram>
</mxfile>